<svg id="Capa_1" data-name="Capa 1" xmlns="http://www.w3.org/2000/svg" viewBox="0 0 614 100"><defs><style>.cls-1{fill:#acd9b2;}.cls-2{fill:none;}</style></defs><path d="M13.66,17v6.23a4.57,4.57,0,0,0,4.57,4.57H49.41A4.57,4.57,0,0,1,54,32.32h0a4.57,4.57,0,0,1-4.57,4.57H18.23a4.56,4.56,0,0,0-4.57,4.57V56.82a4.57,4.57,0,0,1-4.57,4.57H7.45a4.56,4.56,0,0,1-4.57-4.57v-49A4.56,4.56,0,0,1,7.45,3.25H54a4.56,4.56,0,0,1,4.57,4.56h0A4.56,4.56,0,0,1,54,12.38H18.23A4.57,4.57,0,0,0,13.66,17Z"/><path class="cls-1" d="M145.39,32.08q0-14.55,9.21-22.23T182,2.17q18.22,0,27.48,7.68t9.25,22.23q0,14.54-9.2,22.05T182,61.65q-18.33,0-27.49-7.52T145.39,32.08ZM207.28,32q0-20.52-25.24-20.52-12.22,0-18.68,5T156.89,32q0,10.64,6.47,15.5T182,52.34q12.3,0,18.77-4.85T207.28,32Z"/><path class="cls-1" d="M298.2,61.39h0A3.66,3.66,0,0,1,294.78,59l-.65-1.7a3.67,3.67,0,0,0-5.77-1.52,23.44,23.44,0,0,1-6.07,3.51A40.35,40.35,0,0,1,267,62.06q-17.14,0-26.31-7.6t-9.16-22q0-14.63,9.79-22.27t29.54-7.64q15.17,0,25.86,4.54a3.68,3.68,0,0,1,1.77,5.19L297,15.06A3.67,3.67,0,0,1,292,16.45a38.42,38.42,0,0,0-7.82-3.19,48.85,48.85,0,0,0-13.12-1.54q-13.11,0-20.56,5.07T243,32.4q0,10.56,6.87,15.54t18.91,5q9.71,0,16.12-3.57a11.89,11.89,0,0,0,3.24-2.6l.09-.1A17.84,17.84,0,0,0,291,43a5.14,5.14,0,0,0,0-4c-.87-2-3-2.67-4-3-3.12-1-4.32.24-11,1a32.84,32.84,0,0,1-9,0c-2-.3-4-.82-4-1,.06-.44,11.71.66,11.73.47a4.58,4.58,0,0,1-2.59-1.07,3.63,3.63,0,0,1-1.08-2.59V31.33a3.67,3.67,0,0,1,3.67-3.66L269,25a48.81,48.81,0,0,1,18.3,3.42c3.27,1.31,6.05,2.46,8.71,5.11a21.11,21.11,0,0,1,5.86,14.16v10A3.66,3.66,0,0,1,298.2,61.39Z"/><path d="M315.7,51a5,5,0,0,1,6.61-2.26,39.08,39.08,0,0,0,8.28,2.81A63.72,63.72,0,0,0,344.11,53q17.33,0,17.33-8A5.67,5.67,0,0,0,359,40.17a17.12,17.12,0,0,0-6.2-2.66q-3.72-.87-10.28-1.78a123.94,123.94,0,0,1-13.74-2.66,21.76,21.76,0,0,1-8.94-4.74Q316.09,25,316.08,19q0-8.39,7.73-12.46T345.09,2.5A68.77,68.77,0,0,1,367,6a5,5,0,0,1,2.81,6.93l0,.06a5,5,0,0,1-6.53,2.28,48.19,48.19,0,0,0-19.44-3.59,36.56,36.56,0,0,0-11.63,1.57q-4.63,1.59-4.63,5A5,5,0,0,0,330,22.56,17.57,17.57,0,0,0,335.84,25q3.51.82,9.88,1.83a127.67,127.67,0,0,1,14.1,2.7,21.89,21.89,0,0,1,9.34,5Q373,38,372.94,44.28a14.75,14.75,0,0,1-7.68,13.42q-7.59,4.44-21.15,4.44a77.53,77.53,0,0,1-25.74-4,5,5,0,0,1-2.79-6.88Z"/><path d="M450.45,8.63V56a5.39,5.39,0,0,1-5.39,5.39h0A5.39,5.39,0,0,1,439.67,56V42a5.39,5.39,0,0,0-5.39-5.39H404.92A5.39,5.39,0,0,0,399.53,42V56a5.39,5.39,0,0,1-5.39,5.39h0A5.39,5.39,0,0,1,388.75,56V8.63a5.38,5.38,0,0,1,5.39-5.38h0a5.39,5.39,0,0,1,5.39,5.38V22.11a5.39,5.39,0,0,0,5.39,5.39h29.36a5.39,5.39,0,0,0,5.39-5.39V8.63a5.39,5.39,0,0,1,5.39-5.38h0A5.38,5.38,0,0,1,450.45,8.63Z"/><path d="M465.73,32.49q0-14.55,9.2-22.23t27.44-7.68q18.23,0,27.48,7.68t9.25,22.23q0,14.53-9.2,22t-27.53,7.52q-18.31,0-27.48-7.52T465.73,32.49Zm61.88-.09q0-20.52-25.24-20.52-12.21,0-18.68,4.95T477.22,32.4q0,10.64,6.47,15.5t18.68,4.85q12.3,0,18.77-4.85T527.61,32.4Z"/><path d="M612.85,23.27a17.32,17.32,0,0,1-6.74,14.2q-6.74,5.4-21.73,5.4H570.54a5.38,5.38,0,0,0-5.38,5.39V56a5.39,5.39,0,0,1-5.39,5.39h0A5.39,5.39,0,0,1,554.38,56V8.8a5.39,5.39,0,0,1,5.39-5.39h24.61q15.09,0,21.78,5.36T612.85,23.27Zm-11.5-.09q0-10.87-16.7-10.88H570.54a5.38,5.38,0,0,0-5.38,5.39v11a5.38,5.38,0,0,0,5.38,5.38h14.11c5.74,0,10-1,12.66-3A9.32,9.32,0,0,0,601.35,23.18Z"/><ellipse cx="182.08" cy="31.91" rx="18.5" ry="6.5"/><ellipse cx="266.71" cy="31.5" rx="18.5" ry="6.5"/><path d="M165,81.82c17.68,8.35,37.3,14.74,56.84,16.38,12,1,24-1,35.64-3.87,10.3-2.5,21.67-5.52,30.56-11.51,5.31-3.58.31-12.25-5-8.64-8.24,5.55-18.65,8.2-28.18,10.51-10.81,2.63-21.84,4.45-33,3.51-17.66-1.48-35.8-7.46-51.8-15-5.78-2.73-10.87,5.89-5,8.64Z"/><path class="cls-2" d="M120,21.6c0-3.6-1.38-6-4.13-7.31s-7-1.91-12.57-1.91H82.92a1.27,1.27,0,0,0-1.27,1.27V29.47a1.27,1.27,0,0,0,1.27,1.27H103.3a52,52,0,0,0,9.2-.66A10.24,10.24,0,0,0,118,27.42,8,8,0,0,0,120,21.6Z"/><path class="cls-2" d="M120,21.6c0-3.6-1.38-6-4.13-7.31s-7-1.91-12.57-1.91H86.23A4.57,4.57,0,0,0,81.66,17v6.23a4.57,4.57,0,0,0,4.57,4.57h31.18l.2,0c.13-.12.29-.22.42-.35A8,8,0,0,0,120,21.6Z"/><path d="M81.65,49H70.88v7.82a4.56,4.56,0,0,0,4.57,4.57h.91a5.29,5.29,0,0,0,5.3-5.29V41.46a4.79,4.79,0,0,1,.21-1.32,1.3,1.3,0,0,0-.22.67Z"/><path d="M128.91,53.07l-12.68-14a1.3,1.3,0,0,1,.7-2.13l.15,0H86.23a4.55,4.55,0,0,0-4.36,3.25,1.25,1.25,0,0,1,1-.59h17.54a5,5,0,0,1,3.69,1.64l16.79,18.56a5,5,0,0,0,3.7,1.64h.57A5,5,0,0,0,128.91,53.07Z"/><path d="M122,12.38H103.3c5.62,0,9.82.64,12.57,1.91S120,18,120,21.6a8,8,0,0,1-2,5.82c-.13.13-.29.23-.42.35a4.55,4.55,0,0,1,2.21,8.42,19.39,19.39,0,0,0,7.5-3.87q4.19-3.74,4.18-10.72c0-5.68-1.69-10-5-13A4.57,4.57,0,0,1,122,12.38Z"/><path d="M86.23,36.89h30.85c1-.21,1.87-.44,2.74-.7a4.55,4.55,0,0,0-2.21-8.42,10.52,10.52,0,0,1-5.11,2.31,52,52,0,0,1-9.2.66H82.92a1.27,1.27,0,0,1-1.27-1.27V13.65a1.27,1.27,0,0,1,1.27-1.27H122a4.57,4.57,0,0,0,4.49-3.77c-.34-.3-.67-.6-1-.88q-6.07-4.49-20-4.48h-30a4.56,4.56,0,0,0-4.57,4.56V49H81.65V40.81a1.3,1.3,0,0,1,.22-.67A4.55,4.55,0,0,1,86.23,36.89Z"/></svg>